<svg xmlns="http://www.w3.org/2000/svg" viewBox="0 0 176 208" role="img" aria-labelledby="title">
  <title id="title">AP News</title>
  <path fill="#fff" d="M0 0h176v186.316H0z"/>
  <path fill="#ff322e" d="M0 186.315h176v21.72H0z"/>
  <path fill="#000" fill-rule="evenodd" d="M40.491 49.028 10.906 139.64h21.42l20.095-64.047 10.071 32.02H49.464l-5.203 18.279h23.98l4.325 13.748h22.032L65.017 49.028H40.49Zm87.77 0H97.508v90.612h21.267V67.307h8.57c9.943 0 15.605 4.842 15.605 13.591 0 8.593-5.662 13.593-15.605 13.593h-1.377v18.278h2.293c22.95 0 36.414-11.796 36.414-31.871 0-20.465-13.464-31.87-36.414-31.87Z"/>
</svg>
